<svg xmlns="http://www.w3.org/2000/svg" width="1015.008" height="152.109" xml:space="preserve"><path d="m326.377 119.414-1.094-9.918c-3.422 5.875-11.875 11.754-24.961 11.754-23.125 0-42.945-17.133-42.945-45.156 0-28.016 20.797-45.273 44.055-45.273 22.75 0 35.359 12.844 39.398 26.184l-16.148 5.754c-2.203-7.719-9.305-16.156-23.25-16.156-12.734 0-26.922 8.922-26.922 29.488 0 19.578 12.852 29.734 27.039 29.734 16.156 0 21.914-10.891 22.766-17.008h-21.539V74.133h37.32v45.277h-13.719v.004zM353.158 119.414v-88.59h16.271v88.59h-16.271zM398.055 84.785l14.812-2.203c3.422-.484 4.523-2.207 4.523-4.281 0-4.285-3.297-7.832-10.148-7.832-7.094 0-11.016 4.527-11.5 9.789l-14.438-3.066c.984-9.414 9.672-19.824 25.82-19.824 19.086 0 26.188 10.77 26.188 22.887v29.605c0 3.18.367 7.465.734 9.551h-14.922c-.367-1.59-.617-4.902-.617-7.227-3.055 4.773-8.812 8.934-17.742 8.934-12.844 0-20.68-8.688-20.68-18.109-.015-10.759 7.938-16.755 17.97-18.224zm19.336 10.281v-2.703l-13.586 2.086c-4.156.602-7.461 2.926-7.461 7.582 0 3.559 2.578 6.973 7.828 6.973 6.851.008 13.219-3.297 13.219-13.938zM456.906 99.836c.367 4.773 3.914 8.934 11.008 8.934 5.391 0 7.953-2.812 7.953-5.996 0-2.691-1.844-4.902-6.492-5.871l-7.945-1.836c-11.625-2.578-16.891-9.555-16.891-17.992 0-11.754 11.5-19.707 22.758-19.707 17.133 0 22.641 10.895 23.375 17.383l-13.586 2.816c-.492-3.555-3.07-7.832-9.914-7.832-4.281 0-7.703 2.57-7.703 5.996 0 2.93 2.078 4.645 5.5 5.387l8.57 1.832c11.867 2.449 17.859 9.668 17.859 18.477 0 9.672-7.828 19.828-23.609 19.828-11.867 0-23-5.883-24.836-18.602l13.953-2.817zM512.078 99.836c.367 4.773 3.914 8.934 11.008 8.934 5.391 0 7.953-2.812 7.953-5.996 0-2.691-1.836-4.902-6.484-5.871l-7.945-1.836c-11.625-2.578-16.891-9.555-16.891-17.992 0-11.754 11.5-19.707 22.758-19.707 17.125 0 22.633 10.895 23.367 17.383l-13.578 2.816c-.492-3.555-3.07-7.832-9.922-7.832-4.281 0-7.703 2.57-7.703 5.996 0 2.93 2.078 4.645 5.5 5.387l8.57 1.832c11.875 2.449 17.867 9.668 17.867 18.477 0 9.672-7.828 19.828-23.609 19.828-11.875 0-23.008-5.883-24.844-18.602l13.953-2.817zM585.727 119.414V32.656h54.812v16.027h-37.922v21.418h33.766V85.64h-33.648v33.77l-17.008.004zM659.133 29.355c5.625 0 10.031 4.527 10.031 10.156 0 5.395-4.406 9.918-10.031 9.918-5.508 0-10.039-4.527-10.039-9.918 0-5.628 4.531-10.156 10.039-10.156zm-8.078 90.059V59.207h16.273v60.207h-16.273zM697.789 119.414h-16.273V59.207h15.781v7.465c3.672-6.242 10.891-9.055 17.375-9.055 14.93 0 21.781 10.645 21.781 23.855v37.934H720.18V84.293c0-6.742-3.305-11.996-11.133-11.996-7.086 0-11.25 5.504-11.25 12.48l-.008 34.637zM758.102 29.355c5.617 0 10.031 4.527 10.031 10.156 0 5.395-4.414 9.918-10.031 9.918-5.508 0-10.047-4.527-10.047-9.918.007-5.628 4.539-10.156 10.047-10.156zm-8.079 90.059V59.207h16.273v60.207h-16.273zM790.391 99.836c.375 4.773 3.922 8.934 11.023 8.934 5.383 0 7.945-2.812 7.945-5.996 0-2.691-1.836-4.902-6.484-5.871l-7.945-1.836c-11.625-2.578-16.898-9.555-16.898-17.992 0-11.754 11.508-19.707 22.766-19.707 17.133 0 22.633 10.895 23.375 17.383l-13.586 2.816c-.484-3.555-3.062-7.832-9.914-7.832-4.281 0-7.711 2.57-7.711 5.996 0 2.93 2.078 4.645 5.508 5.387l8.562 1.832c11.883 2.449 17.867 9.668 17.867 18.477 0 9.672-7.82 19.828-23.609 19.828-11.867 0-23.008-5.883-24.844-18.602l13.945-2.817zM851.93 119.414h-16.273v-88.59h16.273v33.41c3.914-4.648 10.523-6.605 16.273-6.605 15.289 0 22.398 10.645 22.398 23.855v37.934h-16.273V84.305c0-6.734-3.305-11.996-11.133-11.996-6.859 0-10.898 5.145-11.258 11.742l-.007 35.363zM958.617 103.141c-3.305 10.035-12.734 18.113-27.164 18.113-16.516 0-30.836-11.629-30.836-32.188 0-19.215 14.32-31.695 29.602-31.695 18.602 0 29.742 11.875 29.742 31.211 0 2.324-.25 4.762-.25 5.016h-43.07c.367 8.078 6.852 13.703 14.922 13.703 7.094 0 11.5-3.547 13.336-8.445l13.718 4.285zm-14.679-20.559c-.25-5.996-4.164-11.988-13.461-11.988-8.445 0-13.094 6.484-13.461 11.988h26.922zM980.508 99.836c.367 4.773 3.922 8.934 11.008 8.934 5.398 0 7.961-2.812 7.961-5.996 0-2.691-1.836-4.902-6.484-5.871l-7.953-1.836c-11.617-2.578-16.891-9.555-16.891-17.992 0-11.754 11.5-19.707 22.766-19.707 17.117 0 22.625 10.895 23.367 17.383l-13.586 2.816c-.492-3.555-3.062-7.832-9.914-7.832-4.289 0-7.711 2.57-7.711 5.996 0 2.93 2.078 4.645 5.508 5.387l8.562 1.832c11.867 2.449 17.867 9.668 17.867 18.477 0 9.672-7.836 19.828-23.617 19.828-11.867 0-23-5.883-24.836-18.602l13.953-2.817z"/><path fill="red" d="M75.986 83.262c-3.102-6.398-7.453-9.195-9.906-10.086 5.141-2.285 7.828-5.395 9.906-11.566v21.652zm61-50.602L124.51 83.387 112.018 32.66H75.893v18.734C71.51 35 55.408 30.883 41.018 30.656c-17.539-.23-36.969 7.371-37.648 30.562h24.266c0-7.004 6.406-11.02 12.461-10.914 7.43-.059 10.859 3.113 11.031 8.047-.258 4.293-2.797 7.277-10.969 7.277h-8.156v16.828h7.406c4.211 0 10.07 2.289 10.297 8.281.281 7.137-4.688 10.277-10.797 10.34-10.914-.406-13.727-8.785-13.727-15.992H.002c.109 4.852-.047 36.508 39.414 36.266 18.906.172 32.664-7.766 36.555-18.727v16.793h24.289V64.691l13.414 54.727h21.711l13.469-54.664v54.711h24.781v-86.82h-36.648v.015h-.001z"/><path d="M217.018 21.863h1.742v108.379h-1.742z"/><path fill="none" d="M0 0h1015.008v152.109H0z"/></svg>